<svg viewBox="0 0 200 70" xmlns="http://www.w3.org/2000/svg">
    <g>
        <path d="M190.334 69.99c2.73.02 5.4-.87 7.58-2.54 1.02-.7 1.73-1.77 1.98-2.99 .24-1.22.01-2.49-.66-3.53 -.69-1.18-1.51-2.27-2.45-3.25 -3.78-3.94-6.9-8.47-9.24-13.41 -5.53-10.35-11.03-20.703-16.62-31 -1.96-3.6-4.04-7.12-6.23-10.57 -1.98-3.1-4.48-3.53-7.67-1.54 -.69.44-1.31.98-1.84 1.6 -.49.48-.82 1.09-.96 1.77 -.14.67-.07 1.37.2 2 .66 1.48 1.56 2.87 2.36 4.29l22.8 41.59c.36.72.68 1.48.93 2.25 .1.25.1.53 0 .78 -.36.35-.83.58-1.33.63 -4.44-1.22-8.9-2.43-13.29-3.83 -9.84-3.13-19.68-6.26-29.46-9.56 -1.53-.61-3.2-.71-4.79-.28 -1.59.42-2.99 1.35-4 2.65 -.37.31-.65.71-.82 1.15 -.17.44-.23.93-.16 1.4 .06.47.25.92.53 1.31 .28.38.66.69 1.09.89 1.48.65 2.99 1.22 4.54 1.7 11.36 3.69 22.756 7.317 34.01 11.06 4.89 1.6 9.71 3.41 14.59 5.12 2.77 1.26 5.75 2 8.79 2.18Z">
        </path>
        <path d="M92.06 10.79c-12.25.13-24.41 2.14-36.06 5.94 -13.73 4.4-27.16 9.67-40.21 15.79 -4.39 2.18-8.64 4.61-12.76 7.26 -1.09.78-2 1.79-2.68 2.95 -.29.47-.42 1.02-.37 1.57 .04.55.27 1.07.63 1.48 .32.44.79.76 1.31.89s1.08.09 1.58-.14c1.25-.53 2.46-1.14 3.62-1.85 3.07-1.71 6.05-3.7 9.23-5.13 14.42-7.05 29.43-12.83 44.84-17.27 20.85-5.83 42.99-4.94 63.31 2.53 4.35 1.53 8.5 3.53 12.78 5.33 5.01 2.13 9.68 5.01 13.84 8.54 1.24 1.05 2.46 2.15 3.79 3.11 1.12.8 2.49 1.15 3.85 1 1.36-.16 2.625-.81 3.53-1.85 .38-.3.7-.68.93-1.1 .22-.43.36-.91.39-1.39 .03-.49-.04-.98-.21-1.43 -.17-.46-.44-.87-.78-1.22 -3.41-3.56-7.3-6.6-11.57-9.03 -13.61-7.17-27.57-12.93-42.91-14.84 -5.37-.85-10.79-1.27-16.21-1.25Z">
        </path>
    </g>
</svg>
