<svg id="visual" viewBox="0 0 900 600"xmlns="http://www.w3.org/2000/svg" xmlns:xlink="http://www.w3.org/1999/xlink" version="1.1"><rect x="0" y="0" width="900" height="600" fill="#002748"/><path d="M0 184L12.5 176.3C25 168.7 50 153.3 75 144.8C100 136.3 125 134.7 150 138.2C175 141.7 200 150.3 225 171.3C250 192.3 275 225.7 300 224.7C325 223.7 350 188.3 375 173.5C400 158.7 425 164.3 450 158.8C475 153.3 500 136.7 525 142.3C550 148 575 176 600 189.2C625 202.3 650 200.7 675 188C700 175.3 725 151.7 750 141.5C775 131.3 800 134.7 825 137.2C850 139.7 875 141.3 887.5 142.2L900 143L900 601L887.5 601C875 601 850 601 825 601C800 601 775 601 750 601C725 601 700 601 675 601C650 601 625 601 600 601C575 601 550 601 525 601C500 601 475 601 450 601C425 601 400 601 375 601C350 601 325 601 300 601C275 601 250 601 225 601C200 601 175 601 150 601C125 601 100 601 75 601C50 601 25 601 12.5 601L0 601Z" fill="#002748"/><path d="M0 268L12.5 274.7C25 281.3 50 294.7 75 293.2C100 291.7 125 275.3 150 266.2C175 257 200 255 225 262.3C250 269.7 275 286.3 300 279.7C325 273 350 243 375 233.3C400 223.7 425 234.3 450 236.8C475 239.3 500 233.7 525 233.7C550 233.7 575 239.3 600 243C625 246.7 650 248.3 675 247.8C700 247.3 725 244.7 750 253.5C775 262.3 800 282.7 825 289.8C850 297 875 291 887.5 288L900 285L900 601L887.5 601C875 601 850 601 825 601C800 601 775 601 750 601C725 601 700 601 675 601C650 601 625 601 600 601C575 601 550 601 525 601C500 601 475 601 450 601C425 601 400 601 375 601C350 601 325 601 300 601C275 601 250 601 225 601C200 601 175 601 150 601C125 601 100 601 75 601C50 601 25 601 12.5 601L0 601Z" fill="#264563"/><path d="M0 312L12.5 315.5C25 319 50 326 75 322.2C100 318.3 125 303.7 150 304.8C175 306 200 323 225 321.7C250 320.3 275 300.7 300 306.7C325 312.7 350 344.3 375 343.2C400 342 425 308 450 306C475 304 500 334 525 334.2C550 334.3 575 304.7 600 293.7C625 282.7 650 290.3 675 299.3C700 308.3 725 318.7 750 327.5C775 336.3 800 343.7 825 336.2C850 328.7 875 306.3 887.5 295.2L900 284L900 601L887.5 601C875 601 850 601 825 601C800 601 775 601 750 601C725 601 700 601 675 601C650 601 625 601 600 601C575 601 550 601 525 601C500 601 475 601 450 601C425 601 400 601 375 601C350 601 325 601 300 601C275 601 250 601 225 601C200 601 175 601 150 601C125 601 100 601 75 601C50 601 25 601 12.5 601L0 601Z" fill="#486580"/><path d="M0 349L12.5 346.3C25 343.7 50 338.3 75 348.5C100 358.7 125 384.3 150 385.7C175 387 200 364 225 359.7C250 355.3 275 369.7 300 376.2C325 382.7 350 381.3 375 374.8C400 368.3 425 356.7 450 359.3C475 362 500 379 525 384.5C550 390 575 384 600 381.2C625 378.3 650 378.7 675 386.7C700 394.7 725 410.3 750 413.8C775 417.3 800 408.7 825 401C850 393.3 875 386.7 887.5 383.3L900 380L900 601L887.5 601C875 601 850 601 825 601C800 601 775 601 750 601C725 601 700 601 675 601C650 601 625 601 600 601C575 601 550 601 525 601C500 601 475 601 450 601C425 601 400 601 375 601C350 601 325 601 300 601C275 601 250 601 225 601C200 601 175 601 150 601C125 601 100 601 75 601C50 601 25 601 12.5 601L0 601Z" fill="#6b879d"/><path d="M0 440L12.5 436C25 432 50 424 75 422.3C100 420.7 125 425.3 150 431.7C175 438 200 446 225 443.7C250 441.3 275 428.7 300 434.7C325 440.7 350 465.3 375 471.7C400 478 425 466 450 455C475 444 500 434 525 435.8C550 437.7 575 451.3 600 462.3C625 473.3 650 481.7 675 475.7C700 469.7 725 449.3 750 439C775 428.7 800 428.3 825 429.5C850 430.7 875 433.3 887.5 434.7L900 436L900 601L887.5 601C875 601 850 601 825 601C800 601 775 601 750 601C725 601 700 601 675 601C650 601 625 601 600 601C575 601 550 601 525 601C500 601 475 601 450 601C425 601 400 601 375 601C350 601 325 601 300 601C275 601 250 601 225 601C200 601 175 601 150 601C125 601 100 601 75 601C50 601 25 601 12.5 601L0 601Z" fill="#90abbb"/><path d="M0 498L12.5 501.3C25 504.7 50 511.3 75 510C100 508.7 125 499.3 150 501.2C175 503 200 516 225 521.2C250 526.3 275 523.7 300 516.2C325 508.7 350 496.3 375 499.7C400 503 425 522 450 521.7C475 521.3 500 501.7 525 496.8C550 492 575 502 600 507.2C625 512.3 650 512.7 675 517.7C700 522.7 725 532.3 750 526.8C775 521.3 800 500.7 825 494.2C850 487.7 875 495.3 887.5 499.2L900 503L900 601L887.5 601C875 601 850 601 825 601C800 601 775 601 750 601C725 601 700 601 675 601C650 601 625 601 600 601C575 601 550 601 525 601C500 601 475 601 450 601C425 601 400 601 375 601C350 601 325 601 300 601C275 601 250 601 225 601C200 601 175 601 150 601C125 601 100 601 75 601C50 601 25 601 12.5 601L0 601Z" fill="#b8cfda"/>
</svg>
