<svg viewBox="0 0 900 600" xmlns="http://www.w3.org/2000/svg" xmlns:xlink="http://www.w3.org/1999/xlink" version="1.1" preserveAspectRatio="none"><rect x="0" y="0" width="900" height="600" fill="#fff"/><path d="M0 265L18.8 263.7C37.7 262.3 75.3 259.7 112.8 269.7C150.3 279.7 187.7 302.3 225.2 312.7C262.7 323 300.3 321 337.8 314.2C375.3 307.3 412.7 295.7 450.2 299.7C487.7 303.7 525.3 323.3 562.8 315.7C600.3 308 637.7 273 675.2 263.3C712.7 253.7 750.3 269.3 787.8 284.7C825.3 300 862.7 315 881.3 322.5L900 330L900 0L881.3 0C862.7 0 825.3 0 787.8 0C750.3 0 712.7 0 675.2 0C637.7 0 600.3 0 562.8 0C525.3 0 487.7 0 450.2 0C412.7 0 375.3 0 337.8 0C300.3 0 262.7 0 225.2 0C187.7 0 150.3 0 112.8 0C75.3 0 37.7 0 18.8 0L0 0Z" fill="#edf3f6" stroke-linecap="round" stroke-linejoin="miter"/>
</svg>
