<svg viewBox="0 0 900 600" xmlns="http://www.w3.org/2000/svg" preserveAspectRatio="none">
    <path d="M0 334L21.5 325.7C43 317.3 86 300.7 128.8 288.2C171.7 275.7 214.3 267.3 257.2 249.5C300 231.7 343 204.3 385.8 200.3C428.7 196.3 471.3 215.7 514.2 207.7C557 199.7 600 164.3 642.8 159.7C685.7 155 728.3 181 771.2 194.3C814 207.7 857 208.3 878.5 208.7L900 209L900 601L878.5 601C857 601 814 601 771.2 601C728.3 601 685.7 601 642.8 601C600 601 557 601 514.2 601C471.3 601 428.7 601 385.8 601C343 601 300 601 257.2 601C214.3 601 171.7 601 128.8 601C86 601 43 601 21.5 601L0 601Z" fill="#91aebc"/><path d="M0 246L21.5 266.5C43 287 86 328 128.8 355.8C171.7 383.7 214.3 398.3 257.2 383.7C300 369 343 325 385.8 324C428.7 323 471.3 365 514.2 362.7C557 360.3 600 313.7 642.8 317.3C685.7 321 728.3 375 771.2 376.7C814 378.3 857 327.7 878.5 302.3L900 277L900 601L878.5 601C857 601 814 601 771.2 601C728.3 601 685.7 601 642.8 601C600 601 557 601 514.2 601C471.3 601 428.7 601 385.8 601C343 601 300 601 257.2 601C214.3 601 171.7 601 128.8 601C86 601 43 601 21.5 601L0 601Z" fill="#b8cfda"/><path d="M0 396L21.5 412C43 428 86 460 128.8 479.8C171.7 499.7 214.3 507.3 257.2 499.3C300 491.3 343 467.7 385.8 462.8C428.7 458 471.3 472 514.2 483C557 494 600 502 642.8 508.3C685.7 514.7 728.3 519.3 771.2 516.3C814 513.3 857 502.7 878.5 497.3L900 492L900 601L878.5 601C857 601 814 601 771.2 601C728.3 601 685.7 601 642.8 601C600 601 557 601 514.2 601C471.3 601 428.7 601 385.8 601C343 601 300 601 257.2 601C214.3 601 171.7 601 128.8 601C86 601 43 601 21.5 601L0 601Z" fill="#cfdee6"/>
</svg>
